<?xml version="1.0" encoding="utf-8" standalone="no"?>
<!DOCTYPE svg PUBLIC "-//W3C//DTD SVG 1.1//EN"
  "http://www.w3.org/Graphics/SVG/1.1/DTD/svg11.dtd">
<svg xmlns:xlink="http://www.w3.org/1999/xlink" width="331.064609pt" height="161.075742pt" viewBox="0 0 331.064609 161.075742" xmlns="http://www.w3.org/2000/svg" version="1.1">
 <metadata>
  <rdf:RDF xmlns:dc="http://purl.org/dc/elements/1.1/" xmlns:cc="http://creativecommons.org/ns#" xmlns:rdf="http://www.w3.org/1999/02/22-rdf-syntax-ns#">
   <cc:Work>
    <dc:type rdf:resource="http://purl.org/dc/dcmitype/StillImage"/>
    <dc:date>2026-06-01T23:32:32.438769</dc:date>
    <dc:format>image/svg+xml</dc:format>
    <dc:creator>
     <cc:Agent>
      <dc:title>Matplotlib v3.10.9, https://matplotlib.org/</dc:title>
     </cc:Agent>
    </dc:creator>
   </cc:Work>
  </rdf:RDF>
 </metadata>
 <defs>
  <style type="text/css">*{stroke-linejoin: round; stroke-linecap: butt}</style>
 </defs>
 <g id="figure_1">
  <g id="patch_1">
   <path d="M 0 161.075742 
L 331.064609 161.075742 
L 331.064609 0 
L 0 0 
z
" style="fill: #ffffff"/>
  </g>
  <g id="axes_1">
   <g id="patch_2">
    <path d="M 40.235781 126.109336 
L 319.265781 126.109336 
L 319.265781 8.269336 
L 40.235781 8.269336 
z
" style="fill: #ffffff"/>
   </g>
   <g id="line2d_1">
    <path d="M 135.087563 126.109336 
L 135.087563 8.269336 
" clip-path="url(#pde47213541)" style="fill: none; stroke-dasharray: 3.33,1.44; stroke-dashoffset: 0; stroke: #2c5f8a; stroke-opacity: 0.45; stroke-width: 0.9"/>
   </g>
   <g id="line2d_2">
    <path d="M 181.132118 126.109336 
L 181.132118 8.269336 
" clip-path="url(#pde47213541)" style="fill: none; stroke-dasharray: 3.33,1.44; stroke-dashoffset: 0; stroke: #c0392b; stroke-opacity: 0.45; stroke-width: 0.9"/>
   </g>
   <g id="line2d_3">
    <path d="M 227.176672 126.109336 
L 227.176672 8.269336 
" clip-path="url(#pde47213541)" style="fill: none; stroke-dasharray: 3.33,1.44; stroke-dashoffset: 0; stroke: #1a7a5e; stroke-opacity: 0.45; stroke-width: 0.9"/>
   </g>
   <g id="matplotlib.axis_1">
    <g id="xtick_1">
     <g id="line2d_4">
      <path d="M 42.998455 126.109336 
L 42.998455 8.269336 
" clip-path="url(#pde47213541)" style="fill: none; stroke-dasharray: 1.406,0.608; stroke-dashoffset: 0; stroke: #c0c0c0; stroke-opacity: 0.14; stroke-width: 0.38"/>
     </g>
     <g id="line2d_5">
      <defs>
       <path id="m51a7ebdb94" d="M 0 0 
L 0 4.5 
" style="stroke: #000000; stroke-width: 0.9"/>
      </defs>
      <g>
       <use xlink:href="#m51a7ebdb94" x="42.998455" y="126.109336" style="stroke: #000000; stroke-width: 0.9"/>
      </g>
     </g>
     <g id="text_1">
      <!-- 0.0 -->
      <g transform="translate(36.239626 140.568008) scale(0.085 -0.085)">
       <defs>
        <path id="DejaVuSerif-30" d="M 2034 219 
Q 2513 219 2750 744 
Q 2988 1269 2988 2328 
Q 2988 3391 2750 3916 
Q 2513 4441 2034 4441 
Q 1556 4441 1318 3916 
Q 1081 3391 1081 2328 
Q 1081 1269 1318 744 
Q 1556 219 2034 219 
z
M 2034 -91 
Q 1275 -91 848 546 
Q 422 1184 422 2328 
Q 422 3475 848 4112 
Q 1275 4750 2034 4750 
Q 2797 4750 3222 4112 
Q 3647 3475 3647 2328 
Q 3647 1184 3222 546 
Q 2797 -91 2034 -91 
z
" transform="scale(0.015625)"/>
        <path id="DejaVuSerif-2e" d="M 603 325 
Q 603 500 722 622 
Q 841 744 1019 744 
Q 1191 744 1312 622 
Q 1434 500 1434 325 
Q 1434 153 1312 31 
Q 1191 -91 1019 -91 
Q 841 -91 722 29 
Q 603 150 603 325 
z
" transform="scale(0.015625)"/>
       </defs>
       <use xlink:href="#DejaVuSerif-30"/>
       <use xlink:href="#DejaVuSerif-2e" transform="translate(63.623047 0)"/>
       <use xlink:href="#DejaVuSerif-30" transform="translate(95.410156 0)"/>
      </g>
     </g>
    </g>
    <g id="xtick_2">
     <g id="line2d_6">
      <path d="M 98.25192 126.109336 
L 98.25192 8.269336 
" clip-path="url(#pde47213541)" style="fill: none; stroke-dasharray: 1.406,0.608; stroke-dashoffset: 0; stroke: #c0c0c0; stroke-opacity: 0.14; stroke-width: 0.38"/>
     </g>
     <g id="line2d_7">
      <g>
       <use xlink:href="#m51a7ebdb94" x="98.25192" y="126.109336" style="stroke: #000000; stroke-width: 0.9"/>
      </g>
     </g>
     <g id="text_2">
      <!-- 0.2 -->
      <g transform="translate(91.493092 140.568008) scale(0.085 -0.085)">
       <defs>
        <path id="DejaVuSerif-32" d="M 819 3553 
L 469 3553 
L 469 4384 
Q 803 4563 1142 4656 
Q 1481 4750 1806 4750 
Q 2534 4750 2956 4397 
Q 3378 4044 3378 3438 
Q 3378 2753 2422 1800 
Q 2347 1728 2309 1691 
L 1131 513 
L 3078 513 
L 3078 1088 
L 3444 1088 
L 3444 0 
L 434 0 
L 434 341 
L 1850 1753 
Q 2319 2222 2519 2614 
Q 2719 3006 2719 3438 
Q 2719 3909 2473 4175 
Q 2228 4441 1797 4441 
Q 1350 4441 1106 4219 
Q 863 3997 819 3553 
z
" transform="scale(0.015625)"/>
       </defs>
       <use xlink:href="#DejaVuSerif-30"/>
       <use xlink:href="#DejaVuSerif-2e" transform="translate(63.623047 0)"/>
       <use xlink:href="#DejaVuSerif-32" transform="translate(95.410156 0)"/>
      </g>
     </g>
    </g>
    <g id="xtick_3">
     <g id="line2d_8">
      <path d="M 153.505385 126.109336 
L 153.505385 8.269336 
" clip-path="url(#pde47213541)" style="fill: none; stroke-dasharray: 1.406,0.608; stroke-dashoffset: 0; stroke: #c0c0c0; stroke-opacity: 0.14; stroke-width: 0.38"/>
     </g>
     <g id="line2d_9">
      <g>
       <use xlink:href="#m51a7ebdb94" x="153.505385" y="126.109336" style="stroke: #000000; stroke-width: 0.9"/>
      </g>
     </g>
     <g id="text_3">
      <!-- 0.4 -->
      <g transform="translate(146.746557 140.568008) scale(0.085 -0.085)">
       <defs>
        <path id="DejaVuSerif-34" d="M 2234 1581 
L 2234 4063 
L 641 1581 
L 2234 1581 
z
M 3609 0 
L 1484 0 
L 1484 331 
L 2234 331 
L 2234 1247 
L 197 1247 
L 197 1588 
L 2241 4750 
L 2859 4750 
L 2859 1581 
L 3750 1581 
L 3750 1247 
L 2859 1247 
L 2859 331 
L 3609 331 
L 3609 0 
z
" transform="scale(0.015625)"/>
       </defs>
       <use xlink:href="#DejaVuSerif-30"/>
       <use xlink:href="#DejaVuSerif-2e" transform="translate(63.623047 0)"/>
       <use xlink:href="#DejaVuSerif-34" transform="translate(95.410156 0)"/>
      </g>
     </g>
    </g>
    <g id="xtick_4">
     <g id="line2d_10">
      <path d="M 208.758851 126.109336 
L 208.758851 8.269336 
" clip-path="url(#pde47213541)" style="fill: none; stroke-dasharray: 1.406,0.608; stroke-dashoffset: 0; stroke: #c0c0c0; stroke-opacity: 0.14; stroke-width: 0.38"/>
     </g>
     <g id="line2d_11">
      <g>
       <use xlink:href="#m51a7ebdb94" x="208.758851" y="126.109336" style="stroke: #000000; stroke-width: 0.9"/>
      </g>
     </g>
     <g id="text_4">
      <!-- 0.6 -->
      <g transform="translate(202.000022 140.568008) scale(0.085 -0.085)">
       <defs>
        <path id="DejaVuSerif-36" d="M 2094 219 
Q 2534 219 2771 542 
Q 3009 866 3009 1472 
Q 3009 2078 2771 2401 
Q 2534 2725 2094 2725 
Q 1647 2725 1412 2412 
Q 1178 2100 1178 1509 
Q 1178 888 1415 553 
Q 1653 219 2094 219 
z
M 1075 2569 
Q 1288 2803 1556 2918 
Q 1825 3034 2163 3034 
Q 2859 3034 3264 2615 
Q 3669 2197 3669 1472 
Q 3669 763 3233 336 
Q 2797 -91 2069 -91 
Q 1278 -91 853 498 
Q 428 1088 428 2181 
Q 428 3406 931 4078 
Q 1434 4750 2350 4750 
Q 2597 4750 2869 4703 
Q 3141 4656 3425 4563 
L 3425 3794 
L 3072 3794 
Q 3034 4109 2831 4275 
Q 2628 4441 2284 4441 
Q 1678 4441 1381 3981 
Q 1084 3522 1075 2569 
z
" transform="scale(0.015625)"/>
       </defs>
       <use xlink:href="#DejaVuSerif-30"/>
       <use xlink:href="#DejaVuSerif-2e" transform="translate(63.623047 0)"/>
       <use xlink:href="#DejaVuSerif-36" transform="translate(95.410156 0)"/>
      </g>
     </g>
    </g>
    <g id="xtick_5">
     <g id="line2d_12">
      <path d="M 264.012316 126.109336 
L 264.012316 8.269336 
" clip-path="url(#pde47213541)" style="fill: none; stroke-dasharray: 1.406,0.608; stroke-dashoffset: 0; stroke: #c0c0c0; stroke-opacity: 0.14; stroke-width: 0.38"/>
     </g>
     <g id="line2d_13">
      <g>
       <use xlink:href="#m51a7ebdb94" x="264.012316" y="126.109336" style="stroke: #000000; stroke-width: 0.9"/>
      </g>
     </g>
     <g id="text_5">
      <!-- 0.8 -->
      <g transform="translate(257.253488 140.568008) scale(0.085 -0.085)">
       <defs>
        <path id="DejaVuSerif-38" d="M 2981 1275 
Q 2981 1775 2732 2051 
Q 2484 2328 2034 2328 
Q 1584 2328 1336 2051 
Q 1088 1775 1088 1275 
Q 1088 772 1336 495 
Q 1584 219 2034 219 
Q 2484 219 2732 495 
Q 2981 772 2981 1275 
z
M 2853 3541 
Q 2853 3966 2637 4203 
Q 2422 4441 2034 4441 
Q 1650 4441 1433 4203 
Q 1216 3966 1216 3541 
Q 1216 3113 1433 2875 
Q 1650 2638 2034 2638 
Q 2422 2638 2637 2875 
Q 2853 3113 2853 3541 
z
M 2516 2484 
Q 3047 2413 3344 2092 
Q 3641 1772 3641 1275 
Q 3641 619 3225 264 
Q 2809 -91 2034 -91 
Q 1263 -91 845 264 
Q 428 619 428 1275 
Q 428 1772 725 2092 
Q 1022 2413 1556 2484 
Q 1084 2569 832 2842 
Q 581 3116 581 3541 
Q 581 4103 968 4426 
Q 1356 4750 2034 4750 
Q 2713 4750 3100 4426 
Q 3488 4103 3488 3541 
Q 3488 3116 3236 2842 
Q 2984 2569 2516 2484 
z
" transform="scale(0.015625)"/>
       </defs>
       <use xlink:href="#DejaVuSerif-30"/>
       <use xlink:href="#DejaVuSerif-2e" transform="translate(63.623047 0)"/>
       <use xlink:href="#DejaVuSerif-38" transform="translate(95.410156 0)"/>
      </g>
     </g>
    </g>
    <g id="xtick_6">
     <g id="line2d_14">
      <path d="M 319.265781 126.109336 
L 319.265781 8.269336 
" clip-path="url(#pde47213541)" style="fill: none; stroke-dasharray: 1.406,0.608; stroke-dashoffset: 0; stroke: #c0c0c0; stroke-opacity: 0.14; stroke-width: 0.38"/>
     </g>
     <g id="line2d_15">
      <g>
       <use xlink:href="#m51a7ebdb94" x="319.265781" y="126.109336" style="stroke: #000000; stroke-width: 0.9"/>
      </g>
     </g>
     <g id="text_6">
      <!-- 1.0 -->
      <g transform="translate(312.506953 140.568008) scale(0.085 -0.085)">
       <defs>
        <path id="DejaVuSerif-31" d="M 909 0 
L 909 331 
L 1722 331 
L 1722 4213 
L 781 3603 
L 781 4013 
L 1919 4750 
L 2350 4750 
L 2350 331 
L 3163 331 
L 3163 0 
L 909 0 
z
" transform="scale(0.015625)"/>
       </defs>
       <use xlink:href="#DejaVuSerif-31"/>
       <use xlink:href="#DejaVuSerif-2e" transform="translate(63.623047 0)"/>
       <use xlink:href="#DejaVuSerif-30" transform="translate(95.410156 0)"/>
      </g>
     </g>
    </g>
    <g id="text_7">
     <!-- Utilization $\rho_s$ -->
     <g transform="translate(146.550781 153.935742) scale(0.1 -0.1)">
      <defs>
       <path id="DejaVuSerif-55" d="M 897 4331 
L 300 4331 
L 300 4666 
L 2125 4666 
L 2125 4331 
L 1528 4331 
L 1528 1919 
Q 1528 1025 1820 672 
Q 2113 319 2828 319 
Q 3544 319 3836 672 
Q 4128 1025 4128 1919 
L 4128 4331 
L 3531 4331 
L 3531 4666 
L 5106 4666 
L 5106 4331 
L 4513 4331 
L 4513 1856 
Q 4513 791 4103 350 
Q 3694 -91 2713 -91 
Q 1731 -91 1314 353 
Q 897 797 897 1856 
L 897 4331 
z
" transform="scale(0.015625)"/>
       <path id="DejaVuSerif-74" d="M 691 2988 
L 184 2988 
L 184 3322 
L 691 3322 
L 691 4353 
L 1269 4353 
L 1269 3322 
L 2350 3322 
L 2350 2988 
L 1269 2988 
L 1269 878 
Q 1269 456 1350 337 
Q 1431 219 1650 219 
Q 1875 219 1978 351 
Q 2081 484 2088 781 
L 2522 781 
Q 2497 328 2275 118 
Q 2053 -91 1600 -91 
Q 1103 -91 897 129 
Q 691 350 691 878 
L 691 2988 
z
" transform="scale(0.015625)"/>
       <path id="DejaVuSerif-69" d="M 622 4353 
Q 622 4497 726 4603 
Q 831 4709 978 4709 
Q 1122 4709 1226 4603 
Q 1331 4497 1331 4353 
Q 1331 4206 1228 4103 
Q 1125 4000 978 4000 
Q 831 4000 726 4103 
Q 622 4206 622 4353 
z
M 1356 331 
L 1900 331 
L 1900 0 
L 231 0 
L 231 331 
L 781 331 
L 781 2988 
L 231 2988 
L 231 3322 
L 1356 3322 
L 1356 331 
z
" transform="scale(0.015625)"/>
       <path id="DejaVuSerif-6c" d="M 1313 331 
L 1856 331 
L 1856 0 
L 184 0 
L 184 331 
L 738 331 
L 738 4531 
L 184 4531 
L 184 4863 
L 1313 4863 
L 1313 331 
z
" transform="scale(0.015625)"/>
       <path id="DejaVuSerif-7a" d="M 256 0 
L 256 269 
L 2338 2988 
L 691 2988 
L 691 2413 
L 359 2413 
L 359 3322 
L 3078 3322 
L 3078 3053 
L 997 331 
L 2803 331 
L 2803 934 
L 3138 934 
L 3138 0 
L 256 0 
z
" transform="scale(0.015625)"/>
       <path id="DejaVuSerif-61" d="M 2547 1044 
L 2547 1747 
L 1806 1747 
Q 1378 1747 1168 1562 
Q 959 1378 959 997 
Q 959 650 1171 447 
Q 1384 244 1747 244 
Q 2106 244 2326 466 
Q 2547 688 2547 1044 
z
M 3122 2075 
L 3122 331 
L 3634 331 
L 3634 0 
L 2547 0 
L 2547 359 
Q 2356 128 2106 18 
Q 1856 -91 1522 -91 
Q 969 -91 644 203 
Q 319 497 319 997 
Q 319 1513 691 1797 
Q 1063 2081 1741 2081 
L 2547 2081 
L 2547 2309 
Q 2547 2688 2317 2895 
Q 2088 3103 1672 3103 
Q 1328 3103 1125 2947 
Q 922 2791 872 2484 
L 575 2484 
L 575 3156 
Q 875 3284 1158 3348 
Q 1441 3413 1709 3413 
Q 2400 3413 2761 3070 
Q 3122 2728 3122 2075 
z
" transform="scale(0.015625)"/>
       <path id="DejaVuSerif-6f" d="M 1925 219 
Q 2388 219 2623 584 
Q 2859 950 2859 1663 
Q 2859 2375 2623 2739 
Q 2388 3103 1925 3103 
Q 1463 3103 1227 2739 
Q 991 2375 991 1663 
Q 991 950 1228 584 
Q 1466 219 1925 219 
z
M 1925 -91 
Q 1200 -91 759 389 
Q 319 869 319 1663 
Q 319 2456 758 2934 
Q 1197 3413 1925 3413 
Q 2653 3413 3092 2934 
Q 3531 2456 3531 1663 
Q 3531 869 3092 389 
Q 2653 -91 1925 -91 
z
" transform="scale(0.015625)"/>
       <path id="DejaVuSerif-6e" d="M 263 0 
L 263 331 
L 781 331 
L 781 2988 
L 231 2988 
L 231 3322 
L 1356 3322 
L 1356 2731 
Q 1516 3069 1770 3241 
Q 2025 3413 2363 3413 
Q 2913 3413 3172 3097 
Q 3431 2781 3431 2113 
L 3431 331 
L 3944 331 
L 3944 0 
L 2356 0 
L 2356 331 
L 2853 331 
L 2853 1931 
Q 2853 2541 2703 2767 
Q 2553 2994 2175 2994 
Q 1775 2994 1565 2701 
Q 1356 2409 1356 1850 
L 1356 331 
L 1856 331 
L 1856 0 
L 263 0 
z
" transform="scale(0.015625)"/>
       <path id="DejaVuSerif-20" transform="scale(0.015625)"/>
       <path id="DejaVuSans-Oblique-3c1" d="M 1203 2875 
Q 1453 3194 1981 3475 
Q 2188 3584 2756 3584 
Q 3394 3584 3694 3078 
Q 3994 2572 3834 1747 
Q 3672 922 3175 415 
Q 2678 -91 2041 -91 
Q 1656 -91 1409 63 
Q 1163 213 1044 525 
L 681 -1331 
L 103 -1331 
L 697 1716 
Q 838 2438 1203 2875 
z
M 3238 1747 
Q 3359 2381 3169 2744 
Q 2978 3103 2522 3103 
Q 2066 3103 1734 2744 
Q 1403 2381 1281 1747 
Q 1156 1113 1347 750 
Q 1538 391 1994 391 
Q 2450 391 2781 750 
Q 3113 1113 3238 1747 
z
" transform="scale(0.015625)"/>
       <path id="DejaVuSans-Oblique-73" d="M 3200 3397 
L 3091 2853 
Q 2863 2978 2609 3040 
Q 2356 3103 2088 3103 
Q 1634 3103 1373 2948 
Q 1113 2794 1113 2528 
Q 1113 2219 1719 2053 
Q 1766 2041 1788 2034 
L 1972 1978 
Q 2547 1819 2739 1644 
Q 2931 1469 2931 1166 
Q 2931 609 2489 259 
Q 2047 -91 1331 -91 
Q 1053 -91 747 -37 
Q 441 16 72 128 
L 184 722 
Q 500 559 806 475 
Q 1113 391 1394 391 
Q 1816 391 2080 572 
Q 2344 753 2344 1031 
Q 2344 1331 1650 1516 
L 1591 1531 
L 1394 1581 
Q 956 1697 753 1886 
Q 550 2075 550 2369 
Q 550 2928 970 3256 
Q 1391 3584 2113 3584 
Q 2397 3584 2667 3537 
Q 2938 3491 3200 3397 
z
" transform="scale(0.015625)"/>
      </defs>
      <use xlink:href="#DejaVuSerif-55" transform="translate(0 0.015625)"/>
      <use xlink:href="#DejaVuSerif-74" transform="translate(84.277344 0.015625)"/>
      <use xlink:href="#DejaVuSerif-69" transform="translate(124.462891 0.015625)"/>
      <use xlink:href="#DejaVuSerif-6c" transform="translate(156.445312 0.015625)"/>
      <use xlink:href="#DejaVuSerif-69" transform="translate(188.427734 0.015625)"/>
      <use xlink:href="#DejaVuSerif-7a" transform="translate(220.410156 0.015625)"/>
      <use xlink:href="#DejaVuSerif-61" transform="translate(273.095703 0.015625)"/>
      <use xlink:href="#DejaVuSerif-74" transform="translate(332.714844 0.015625)"/>
      <use xlink:href="#DejaVuSerif-69" transform="translate(372.900391 0.015625)"/>
      <use xlink:href="#DejaVuSerif-6f" transform="translate(404.882812 0.015625)"/>
      <use xlink:href="#DejaVuSerif-6e" transform="translate(465.087891 0.015625)"/>
      <use xlink:href="#DejaVuSerif-20" transform="translate(529.492188 0.015625)"/>
      <use xlink:href="#DejaVuSans-Oblique-3c1" transform="translate(561.279297 0.015625)"/>
      <use xlink:href="#DejaVuSans-Oblique-73" transform="translate(624.755859 -16.390625) scale(0.7)"/>
     </g>
    </g>
   </g>
   <g id="matplotlib.axis_2">
    <g id="ytick_1">
     <g id="line2d_16">
      <path d="M 40.235781 123.798748 
L 319.265781 123.798748 
" clip-path="url(#pde47213541)" style="fill: none; stroke-dasharray: 1.406,0.608; stroke-dashoffset: 0; stroke: #c0c0c0; stroke-opacity: 0.14; stroke-width: 0.38"/>
     </g>
     <g id="line2d_17">
      <defs>
       <path id="m884b3204c9" d="M 0 0 
L -4.5 0 
" style="stroke: #000000; stroke-width: 0.9"/>
      </defs>
      <g>
       <use xlink:href="#m884b3204c9" x="40.235781" y="123.798748" style="stroke: #000000; stroke-width: 0.9"/>
      </g>
     </g>
     <g id="text_8">
      <!-- 0.0 -->
      <g transform="translate(18.718125 127.028084) scale(0.085 -0.085)">
       <use xlink:href="#DejaVuSerif-30"/>
       <use xlink:href="#DejaVuSerif-2e" transform="translate(63.623047 0)"/>
       <use xlink:href="#DejaVuSerif-30" transform="translate(95.410156 0)"/>
      </g>
     </g>
    </g>
    <g id="ytick_2">
     <g id="line2d_18">
      <path d="M 40.235781 100.692865 
L 319.265781 100.692865 
" clip-path="url(#pde47213541)" style="fill: none; stroke-dasharray: 1.406,0.608; stroke-dashoffset: 0; stroke: #c0c0c0; stroke-opacity: 0.14; stroke-width: 0.38"/>
     </g>
     <g id="line2d_19">
      <g>
       <use xlink:href="#m884b3204c9" x="40.235781" y="100.692865" style="stroke: #000000; stroke-width: 0.9"/>
      </g>
     </g>
     <g id="text_9">
      <!-- 0.1 -->
      <g transform="translate(18.718125 103.922201) scale(0.085 -0.085)">
       <use xlink:href="#DejaVuSerif-30"/>
       <use xlink:href="#DejaVuSerif-2e" transform="translate(63.623047 0)"/>
       <use xlink:href="#DejaVuSerif-31" transform="translate(95.410156 0)"/>
      </g>
     </g>
    </g>
    <g id="ytick_3">
     <g id="line2d_20">
      <path d="M 40.235781 77.586983 
L 319.265781 77.586983 
" clip-path="url(#pde47213541)" style="fill: none; stroke-dasharray: 1.406,0.608; stroke-dashoffset: 0; stroke: #c0c0c0; stroke-opacity: 0.14; stroke-width: 0.38"/>
     </g>
     <g id="line2d_21">
      <g>
       <use xlink:href="#m884b3204c9" x="40.235781" y="77.586983" style="stroke: #000000; stroke-width: 0.9"/>
      </g>
     </g>
     <g id="text_10">
      <!-- 0.2 -->
      <g transform="translate(18.718125 80.816319) scale(0.085 -0.085)">
       <use xlink:href="#DejaVuSerif-30"/>
       <use xlink:href="#DejaVuSerif-2e" transform="translate(63.623047 0)"/>
       <use xlink:href="#DejaVuSerif-32" transform="translate(95.410156 0)"/>
      </g>
     </g>
    </g>
    <g id="ytick_4">
     <g id="line2d_22">
      <path d="M 40.235781 54.481101 
L 319.265781 54.481101 
" clip-path="url(#pde47213541)" style="fill: none; stroke-dasharray: 1.406,0.608; stroke-dashoffset: 0; stroke: #c0c0c0; stroke-opacity: 0.14; stroke-width: 0.38"/>
     </g>
     <g id="line2d_23">
      <g>
       <use xlink:href="#m884b3204c9" x="40.235781" y="54.481101" style="stroke: #000000; stroke-width: 0.9"/>
      </g>
     </g>
     <g id="text_11">
      <!-- 0.3 -->
      <g transform="translate(18.718125 57.710437) scale(0.085 -0.085)">
       <defs>
        <path id="DejaVuSerif-33" d="M 622 4469 
Q 988 4606 1323 4678 
Q 1659 4750 1953 4750 
Q 2638 4750 3022 4454 
Q 3406 4159 3406 3634 
Q 3406 3213 3140 2930 
Q 2875 2647 2388 2547 
Q 2963 2466 3280 2130 
Q 3597 1794 3597 1259 
Q 3597 606 3158 257 
Q 2719 -91 1894 -91 
Q 1528 -91 1179 -12 
Q 831 66 488 225 
L 488 1131 
L 838 1131 
Q 869 681 1141 450 
Q 1413 219 1906 219 
Q 2384 219 2661 495 
Q 2938 772 2938 1253 
Q 2938 1803 2653 2086 
Q 2369 2369 1819 2369 
L 1522 2369 
L 1522 2688 
L 1678 2688 
Q 2225 2688 2498 2914 
Q 2772 3141 2772 3597 
Q 2772 4006 2547 4223 
Q 2322 4441 1900 4441 
Q 1478 4441 1245 4241 
Q 1013 4041 972 3647 
L 622 3647 
L 622 4469 
z
" transform="scale(0.015625)"/>
       </defs>
       <use xlink:href="#DejaVuSerif-30"/>
       <use xlink:href="#DejaVuSerif-2e" transform="translate(63.623047 0)"/>
       <use xlink:href="#DejaVuSerif-33" transform="translate(95.410156 0)"/>
      </g>
     </g>
    </g>
    <g id="ytick_5">
     <g id="line2d_24">
      <path d="M 40.235781 31.375218 
L 319.265781 31.375218 
" clip-path="url(#pde47213541)" style="fill: none; stroke-dasharray: 1.406,0.608; stroke-dashoffset: 0; stroke: #c0c0c0; stroke-opacity: 0.14; stroke-width: 0.38"/>
     </g>
     <g id="line2d_25">
      <g>
       <use xlink:href="#m884b3204c9" x="40.235781" y="31.375218" style="stroke: #000000; stroke-width: 0.9"/>
      </g>
     </g>
     <g id="text_12">
      <!-- 0.4 -->
      <g transform="translate(18.718125 34.604554) scale(0.085 -0.085)">
       <use xlink:href="#DejaVuSerif-30"/>
       <use xlink:href="#DejaVuSerif-2e" transform="translate(63.623047 0)"/>
       <use xlink:href="#DejaVuSerif-34" transform="translate(95.410156 0)"/>
      </g>
     </g>
    </g>
    <g id="ytick_6">
     <g id="line2d_26">
      <path d="M 40.235781 8.269336 
L 319.265781 8.269336 
" clip-path="url(#pde47213541)" style="fill: none; stroke-dasharray: 1.406,0.608; stroke-dashoffset: 0; stroke: #c0c0c0; stroke-opacity: 0.14; stroke-width: 0.38"/>
     </g>
     <g id="line2d_27">
      <g>
       <use xlink:href="#m884b3204c9" x="40.235781" y="8.269336" style="stroke: #000000; stroke-width: 0.9"/>
      </g>
     </g>
     <g id="text_13">
      <!-- 0.5 -->
      <g transform="translate(18.718125 11.498672) scale(0.085 -0.085)">
       <defs>
        <path id="DejaVuSerif-35" d="M 3219 4666 
L 3219 4153 
L 1081 4153 
L 1081 2816 
Q 1244 2928 1461 2984 
Q 1678 3041 1947 3041 
Q 2703 3041 3140 2622 
Q 3578 2203 3578 1478 
Q 3578 738 3136 323 
Q 2694 -91 1894 -91 
Q 1572 -91 1234 -12 
Q 897 66 544 225 
L 544 1131 
L 897 1131 
Q 925 688 1179 453 
Q 1434 219 1894 219 
Q 2388 219 2653 544 
Q 2919 869 2919 1478 
Q 2919 2084 2655 2407 
Q 2391 2731 1894 2731 
Q 1613 2731 1398 2631 
Q 1184 2531 1019 2322 
L 750 2322 
L 750 4666 
L 3219 4666 
z
" transform="scale(0.015625)"/>
       </defs>
       <use xlink:href="#DejaVuSerif-30"/>
       <use xlink:href="#DejaVuSerif-2e" transform="translate(63.623047 0)"/>
       <use xlink:href="#DejaVuSerif-35" transform="translate(95.410156 0)"/>
      </g>
     </g>
    </g>
    <g id="text_14">
     <!-- Ceremonial fraction $P(N{&gt;}T)$ -->
     <g transform="translate(12.638438 139.389336) rotate(-90) scale(0.1 -0.1)">
      <defs>
       <path id="DejaVuSerif-43" d="M 4513 1234 
Q 4306 581 3820 245 
Q 3334 -91 2591 -91 
Q 2134 -91 1743 65 
Q 1353 222 1050 525 
Q 700 875 529 1320 
Q 359 1766 359 2328 
Q 359 3416 987 4083 
Q 1616 4750 2644 4750 
Q 3025 4750 3456 4650 
Q 3888 4550 4384 4347 
L 4384 3272 
L 4031 3272 
Q 3916 3859 3567 4137 
Q 3219 4416 2591 4416 
Q 1844 4416 1459 3886 
Q 1075 3356 1075 2328 
Q 1075 1303 1459 773 
Q 1844 244 2591 244 
Q 3113 244 3450 492 
Q 3788 741 3938 1234 
L 4513 1234 
z
" transform="scale(0.015625)"/>
       <path id="DejaVuSerif-65" d="M 3469 1600 
L 991 1600 
L 991 1575 
Q 991 903 1244 561 
Q 1497 219 1991 219 
Q 2369 219 2611 417 
Q 2853 616 2950 1006 
L 3413 1006 
Q 3275 459 2904 184 
Q 2534 -91 1931 -91 
Q 1203 -91 761 389 
Q 319 869 319 1663 
Q 319 2450 753 2931 
Q 1188 3413 1894 3413 
Q 2647 3413 3050 2948 
Q 3453 2484 3469 1600 
z
M 2791 1931 
Q 2772 2513 2545 2808 
Q 2319 3103 1894 3103 
Q 1497 3103 1269 2806 
Q 1041 2509 991 1931 
L 2791 1931 
z
" transform="scale(0.015625)"/>
       <path id="DejaVuSerif-72" d="M 3059 3328 
L 3059 2497 
L 2728 2497 
Q 2713 2744 2591 2866 
Q 2469 2988 2234 2988 
Q 1809 2988 1582 2694 
Q 1356 2400 1356 1850 
L 1356 331 
L 2022 331 
L 2022 0 
L 263 0 
L 263 331 
L 781 331 
L 781 2994 
L 231 2994 
L 231 3322 
L 1356 3322 
L 1356 2731 
Q 1525 3078 1790 3245 
Q 2056 3413 2438 3413 
Q 2578 3413 2733 3391 
Q 2888 3369 3059 3328 
z
" transform="scale(0.015625)"/>
       <path id="DejaVuSerif-6d" d="M 3316 2675 
Q 3481 3041 3739 3227 
Q 3997 3413 4341 3413 
Q 4863 3413 5119 3089 
Q 5375 2766 5375 2113 
L 5375 331 
L 5894 331 
L 5894 0 
L 4300 0 
L 4300 331 
L 4800 331 
L 4800 2047 
Q 4800 2556 4650 2772 
Q 4500 2988 4153 2988 
Q 3769 2988 3567 2697 
Q 3366 2406 3366 1850 
L 3366 331 
L 3866 331 
L 3866 0 
L 2291 0 
L 2291 331 
L 2791 331 
L 2791 2069 
Q 2791 2566 2641 2777 
Q 2491 2988 2144 2988 
Q 1759 2988 1557 2697 
Q 1356 2406 1356 1850 
L 1356 331 
L 1856 331 
L 1856 0 
L 263 0 
L 263 331 
L 781 331 
L 781 2994 
L 231 2994 
L 231 3322 
L 1356 3322 
L 1356 2731 
Q 1516 3063 1762 3238 
Q 2009 3413 2322 3413 
Q 2709 3413 2968 3220 
Q 3228 3028 3316 2675 
z
" transform="scale(0.015625)"/>
       <path id="DejaVuSerif-66" d="M 2753 4078 
L 2450 4078 
Q 2447 4313 2317 4434 
Q 2188 4556 1941 4556 
Q 1619 4556 1487 4379 
Q 1356 4203 1356 3750 
L 1356 3322 
L 2284 3322 
L 2284 2988 
L 1356 2988 
L 1356 331 
L 2094 331 
L 2094 0 
L 231 0 
L 231 331 
L 781 331 
L 781 2988 
L 231 2988 
L 231 3322 
L 781 3322 
L 781 3738 
Q 781 4294 1070 4578 
Q 1359 4863 1919 4863 
Q 2128 4863 2337 4825 
Q 2547 4788 2753 4709 
L 2753 4078 
z
" transform="scale(0.015625)"/>
       <path id="DejaVuSerif-63" d="M 3291 997 
Q 3169 466 2822 187 
Q 2475 -91 1925 -91 
Q 1200 -91 759 389 
Q 319 869 319 1663 
Q 319 2459 759 2936 
Q 1200 3413 1925 3413 
Q 2241 3413 2553 3339 
Q 2866 3266 3181 3116 
L 3181 2266 
L 2847 2266 
Q 2781 2703 2561 2903 
Q 2341 3103 1931 3103 
Q 1466 3103 1228 2742 
Q 991 2381 991 1663 
Q 991 944 1227 581 
Q 1463 219 1931 219 
Q 2303 219 2525 412 
Q 2747 606 2828 997 
L 3291 997 
z
" transform="scale(0.015625)"/>
       <path id="DejaVuSans-Oblique-50" d="M 1081 4666 
L 2541 4666 
Q 3178 4666 3512 4369 
Q 3847 4072 3847 3500 
Q 3847 2731 3353 2303 
Q 2859 1875 1966 1875 
L 1172 1875 
L 806 0 
L 172 0 
L 1081 4666 
z
M 1613 4147 
L 1275 2394 
L 2069 2394 
Q 2606 2394 2893 2669 
Q 3181 2944 3181 3456 
Q 3181 3784 2986 3965 
Q 2791 4147 2438 4147 
L 1613 4147 
z
" transform="scale(0.015625)"/>
       <path id="DejaVuSans-28" d="M 1984 4856 
Q 1566 4138 1362 3434 
Q 1159 2731 1159 2009 
Q 1159 1288 1364 580 
Q 1569 -128 1984 -844 
L 1484 -844 
Q 1016 -109 783 600 
Q 550 1309 550 2009 
Q 550 2706 781 3412 
Q 1013 4119 1484 4856 
L 1984 4856 
z
" transform="scale(0.015625)"/>
       <path id="DejaVuSans-Oblique-4e" d="M 1081 4666 
L 1931 4666 
L 3219 666 
L 4000 4666 
L 4616 4666 
L 3706 0 
L 2853 0 
L 1569 4025 
L 788 0 
L 172 0 
L 1081 4666 
z
" transform="scale(0.015625)"/>
       <path id="DejaVuSans-3e" d="M 678 3150 
L 678 3719 
L 4684 2266 
L 4684 1747 
L 678 294 
L 678 863 
L 3897 2003 
L 678 3150 
z
" transform="scale(0.015625)"/>
       <path id="DejaVuSans-Oblique-54" d="M 378 4666 
L 4325 4666 
L 4225 4134 
L 2559 4134 
L 1759 0 
L 1125 0 
L 1925 4134 
L 275 4134 
L 378 4666 
z
" transform="scale(0.015625)"/>
       <path id="DejaVuSans-29" d="M 513 4856 
L 1013 4856 
Q 1481 4119 1714 3412 
Q 1947 2706 1947 2009 
Q 1947 1309 1714 600 
Q 1481 -109 1013 -844 
L 513 -844 
Q 928 -128 1133 580 
Q 1338 1288 1338 2009 
Q 1338 2731 1133 3434 
Q 928 4138 513 4856 
z
" transform="scale(0.015625)"/>
      </defs>
      <use xlink:href="#DejaVuSerif-43" transform="translate(0 0.015625)"/>
      <use xlink:href="#DejaVuSerif-65" transform="translate(76.513672 0.015625)"/>
      <use xlink:href="#DejaVuSerif-72" transform="translate(135.693359 0.015625)"/>
      <use xlink:href="#DejaVuSerif-65" transform="translate(183.496094 0.015625)"/>
      <use xlink:href="#DejaVuSerif-6d" transform="translate(242.675781 0.015625)"/>
      <use xlink:href="#DejaVuSerif-6f" transform="translate(337.5 0.015625)"/>
      <use xlink:href="#DejaVuSerif-6e" transform="translate(397.705078 0.015625)"/>
      <use xlink:href="#DejaVuSerif-69" transform="translate(462.109375 0.015625)"/>
      <use xlink:href="#DejaVuSerif-61" transform="translate(494.091797 0.015625)"/>
      <use xlink:href="#DejaVuSerif-6c" transform="translate(553.710938 0.015625)"/>
      <use xlink:href="#DejaVuSerif-20" transform="translate(585.693359 0.015625)"/>
      <use xlink:href="#DejaVuSerif-66" transform="translate(617.480469 0.015625)"/>
      <use xlink:href="#DejaVuSerif-72" transform="translate(654.492188 0.015625)"/>
      <use xlink:href="#DejaVuSerif-61" transform="translate(702.294922 0.015625)"/>
      <use xlink:href="#DejaVuSerif-63" transform="translate(761.914062 0.015625)"/>
      <use xlink:href="#DejaVuSerif-74" transform="translate(817.919922 0.015625)"/>
      <use xlink:href="#DejaVuSerif-69" transform="translate(858.105469 0.015625)"/>
      <use xlink:href="#DejaVuSerif-6f" transform="translate(890.087891 0.015625)"/>
      <use xlink:href="#DejaVuSerif-6e" transform="translate(950.292969 0.015625)"/>
      <use xlink:href="#DejaVuSerif-20" transform="translate(1014.697266 0.015625)"/>
      <use xlink:href="#DejaVuSans-Oblique-50" transform="translate(1046.484375 0.015625)"/>
      <use xlink:href="#DejaVuSans-28" transform="translate(1106.787109 0.015625)"/>
      <use xlink:href="#DejaVuSans-Oblique-4e" transform="translate(1145.800781 0.015625)"/>
      <use xlink:href="#DejaVuSans-3e" transform="translate(1240.087891 0.015625)"/>
      <use xlink:href="#DejaVuSans-Oblique-54" transform="translate(1343.359375 0.015625)"/>
      <use xlink:href="#DejaVuSans-29" transform="translate(1404.443359 0.015625)"/>
     </g>
    </g>
   </g>
   <g id="patch_3">
    <path d="M 40.235781 126.109336 
L 40.235781 8.269336 
" style="fill: none; stroke: #000000; stroke-width: 0.9; stroke-linejoin: miter; stroke-linecap: square"/>
   </g>
   <g id="patch_4">
    <path d="M 40.235781 126.109336 
L 319.265781 126.109336 
" style="fill: none; stroke: #000000; stroke-width: 0.9; stroke-linejoin: miter; stroke-linecap: square"/>
   </g>
   <g id="line2d_28">
    <path d="M 56.811821 123.421226 
L 70.625187 121.947434 
L 84.438554 119.170936 
L 98.25192 115.06329 
L 112.065286 110.246044 
L 125.878653 104.490204 
L 139.692019 98.461826 
L 153.505385 91.800317 
L 167.318752 85.359929 
L 181.132118 78.471452 
L 194.945484 71.220943 
L 208.758851 64.84515 
L 222.572217 58.452849 
L 236.385583 51.827059 
L 250.19895 45.553542 
L 264.012316 39.838085 
L 277.825682 34.115352 
L 291.639049 28.302912 
L 305.452415 23.100641 
" clip-path="url(#pde47213541)" style="fill: none; stroke: #2c5f8a; stroke-width: 1.7; stroke-linecap: square"/>
   </g>
   <g id="line2d_29">
    <path d="M 56.811821 123.649069 
L 70.625187 123.722347 
L 84.438554 123.709099 
L 98.25192 123.552346 
L 112.065286 123.324083 
L 125.878653 122.811707 
L 139.692019 121.7042 
L 153.505385 119.774476 
L 167.318752 117.544234 
L 181.132118 113.862677 
L 194.945484 110.096074 
L 208.758851 104.791854 
L 222.572217 98.505018 
L 236.385583 93.368078 
L 250.19895 86.043854 
L 264.012316 78.627819 
L 277.825682 71.679451 
L 291.639049 64.872196 
L 305.452415 56.944952 
" clip-path="url(#pde47213541)" style="fill: none; stroke: #c0392b; stroke-width: 1.7; stroke-linecap: square"/>
   </g>
   <g id="line2d_30">
    <path d="M 56.811821 123.649069 
L 70.625187 123.733211 
L 84.438554 123.759624 
L 98.25192 123.731365 
L 112.065286 123.745212 
L 125.878653 123.759532 
L 139.692019 123.746349 
L 153.505385 123.718142 
L 167.318752 123.652578 
L 181.132118 123.342806 
L 194.945484 123.131831 
L 208.758851 122.503932 
L 222.572217 121.006063 
L 236.385583 118.915296 
L 250.19895 116.615457 
L 264.012316 112.812116 
L 277.825682 107.651098 
L 291.639049 101.74574 
L 305.452415 95.272381 
" clip-path="url(#pde47213541)" style="fill: none; stroke: #1a7a5e; stroke-width: 1.7; stroke-linecap: square"/>
   </g>
   <g id="text_15">
    <!-- Dashed: $\rho^*$ -->
    <g style="fill: #888888" transform="translate(181.132118 19.822277) scale(0.07 -0.07)">
     <defs>
      <path id="DejaVuSerif-44" d="M 1581 331 
L 2163 331 
Q 3072 331 3558 850 
Q 4044 1369 4044 2338 
Q 4044 3306 3559 3818 
Q 3075 4331 2163 4331 
L 1581 4331 
L 1581 331 
z
M 353 0 
L 353 331 
L 947 331 
L 947 4331 
L 353 4331 
L 353 4666 
L 2209 4666 
Q 3416 4666 4089 4050 
Q 4763 3434 4763 2338 
Q 4763 1238 4088 619 
Q 3413 0 2209 0 
L 353 0 
z
" transform="scale(0.015625)"/>
      <path id="DejaVuSerif-73" d="M 359 184 
L 359 959 
L 691 959 
Q 703 588 923 403 
Q 1144 219 1575 219 
Q 1963 219 2166 364 
Q 2369 509 2369 788 
Q 2369 1006 2220 1140 
Q 2072 1275 1594 1428 
L 1178 1569 
Q 750 1706 558 1912 
Q 366 2119 366 2438 
Q 366 2894 700 3153 
Q 1034 3413 1625 3413 
Q 1888 3413 2178 3344 
Q 2469 3275 2778 3144 
L 2778 2419 
L 2447 2419 
Q 2434 2741 2221 2922 
Q 2009 3103 1644 3103 
Q 1281 3103 1095 2975 
Q 909 2847 909 2591 
Q 909 2381 1050 2254 
Q 1191 2128 1613 1997 
L 2069 1856 
Q 2541 1709 2748 1489 
Q 2956 1269 2956 922 
Q 2956 450 2595 179 
Q 2234 -91 1600 -91 
Q 1278 -91 972 -22 
Q 666 47 359 184 
z
" transform="scale(0.015625)"/>
      <path id="DejaVuSerif-68" d="M 263 0 
L 263 331 
L 781 331 
L 781 4531 
L 231 4531 
L 231 4863 
L 1356 4863 
L 1356 2731 
Q 1516 3069 1770 3241 
Q 2025 3413 2363 3413 
Q 2913 3413 3172 3097 
Q 3431 2781 3431 2113 
L 3431 331 
L 3944 331 
L 3944 0 
L 2356 0 
L 2356 331 
L 2853 331 
L 2853 1931 
Q 2853 2541 2704 2764 
Q 2556 2988 2175 2988 
Q 1775 2988 1565 2697 
Q 1356 2406 1356 1850 
L 1356 331 
L 1856 331 
L 1856 0 
L 263 0 
z
" transform="scale(0.015625)"/>
      <path id="DejaVuSerif-64" d="M 3359 331 
L 3909 331 
L 3909 0 
L 2784 0 
L 2784 519 
Q 2616 206 2355 57 
Q 2094 -91 1709 -91 
Q 1097 -91 708 395 
Q 319 881 319 1663 
Q 319 2444 706 2928 
Q 1094 3413 1709 3413 
Q 2094 3413 2355 3264 
Q 2616 3116 2784 2803 
L 2784 4531 
L 2241 4531 
L 2241 4863 
L 3359 4863 
L 3359 331 
z
M 2784 1497 
L 2784 1825 
Q 2784 2422 2554 2737 
Q 2325 3053 1888 3053 
Q 1444 3053 1217 2703 
Q 991 2353 991 1663 
Q 991 975 1217 622 
Q 1444 269 1888 269 
Q 2325 269 2554 583 
Q 2784 897 2784 1497 
z
" transform="scale(0.015625)"/>
      <path id="DejaVuSerif-3a" d="M 666 325 
Q 666 500 786 622 
Q 906 744 1081 744 
Q 1256 744 1376 622 
Q 1497 500 1497 325 
Q 1497 150 1378 29 
Q 1259 -91 1081 -91 
Q 903 -91 784 29 
Q 666 150 666 325 
z
M 666 2363 
Q 666 2538 786 2658 
Q 906 2778 1081 2778 
Q 1259 2778 1378 2659 
Q 1497 2541 1497 2363 
Q 1497 2184 1378 2065 
Q 1259 1947 1081 1947 
Q 906 1947 786 2067 
Q 666 2188 666 2363 
z
" transform="scale(0.015625)"/>
      <path id="DejaVuSans-2a" d="M 3009 3897 
L 1888 3291 
L 3009 2681 
L 2828 2375 
L 1778 3009 
L 1778 1831 
L 1422 1831 
L 1422 3009 
L 372 2375 
L 191 2681 
L 1313 3291 
L 191 3897 
L 372 4206 
L 1422 3572 
L 1422 4750 
L 1778 4750 
L 1778 3572 
L 2828 4206 
L 3009 3897 
z
" transform="scale(0.015625)"/>
     </defs>
     <use xlink:href="#DejaVuSerif-44" transform="translate(0 0.765625)"/>
     <use xlink:href="#DejaVuSerif-61" transform="translate(80.175781 0.765625)"/>
     <use xlink:href="#DejaVuSerif-73" transform="translate(139.794922 0.765625)"/>
     <use xlink:href="#DejaVuSerif-68" transform="translate(191.113281 0.765625)"/>
     <use xlink:href="#DejaVuSerif-65" transform="translate(255.517578 0.765625)"/>
     <use xlink:href="#DejaVuSerif-64" transform="translate(314.697266 0.765625)"/>
     <use xlink:href="#DejaVuSerif-3a" transform="translate(378.710938 0.765625)"/>
     <use xlink:href="#DejaVuSerif-20" transform="translate(412.402344 0.765625)"/>
     <use xlink:href="#DejaVuSans-Oblique-3c1" transform="translate(444.189453 0.765625)"/>
     <use xlink:href="#DejaVuSans-2a" transform="translate(525.953607 39.046875) scale(0.7)"/>
    </g>
   </g>
   <g id="legend_1">
    <g id="patch_5">
     <path d="M 45.835781 55.260586 
L 103.435781 55.260586 
Q 105.035781 55.260586 105.035781 53.660586 
L 105.035781 13.869336 
Q 105.035781 12.269336 103.435781 12.269336 
L 45.835781 12.269336 
Q 44.235781 12.269336 44.235781 13.869336 
L 44.235781 53.660586 
Q 44.235781 55.260586 45.835781 55.260586 
z
" style="fill: #ffffff; opacity: 0.97; stroke: #d5d5d5; stroke-linejoin: miter"/>
    </g>
    <g id="line2d_31">
     <path d="M 49.035781 20.469336 
L 57.835781 20.469336 
L 66.635781 20.469336 
" style="fill: none; stroke: #2c5f8a; stroke-width: 1.7; stroke-linecap: square"/>
    </g>
    <g id="text_16">
     <!-- $k=0.5$ -->
     <g transform="translate(73.035781 23.869336) scale(0.08 -0.08)">
      <defs>
       <path id="DejaVuSans-Oblique-6b" d="M 1172 4863 
L 1747 4863 
L 1197 2028 
L 3169 3500 
L 3916 3500 
L 1716 1825 
L 3322 0 
L 2625 0 
L 1131 1709 
L 800 0 
L 225 0 
L 1172 4863 
z
" transform="scale(0.015625)"/>
       <path id="DejaVuSans-3d" d="M 678 2906 
L 4684 2906 
L 4684 2381 
L 678 2381 
L 678 2906 
z
M 678 1631 
L 4684 1631 
L 4684 1100 
L 678 1100 
L 678 1631 
z
" transform="scale(0.015625)"/>
       <path id="DejaVuSans-30" d="M 2034 4250 
Q 1547 4250 1301 3770 
Q 1056 3291 1056 2328 
Q 1056 1369 1301 889 
Q 1547 409 2034 409 
Q 2525 409 2770 889 
Q 3016 1369 3016 2328 
Q 3016 3291 2770 3770 
Q 2525 4250 2034 4250 
z
M 2034 4750 
Q 2819 4750 3233 4129 
Q 3647 3509 3647 2328 
Q 3647 1150 3233 529 
Q 2819 -91 2034 -91 
Q 1250 -91 836 529 
Q 422 1150 422 2328 
Q 422 3509 836 4129 
Q 1250 4750 2034 4750 
z
" transform="scale(0.015625)"/>
       <path id="DejaVuSans-2e" d="M 684 794 
L 1344 794 
L 1344 0 
L 684 0 
L 684 794 
z
" transform="scale(0.015625)"/>
       <path id="DejaVuSans-35" d="M 691 4666 
L 3169 4666 
L 3169 4134 
L 1269 4134 
L 1269 2991 
Q 1406 3038 1543 3061 
Q 1681 3084 1819 3084 
Q 2600 3084 3056 2656 
Q 3513 2228 3513 1497 
Q 3513 744 3044 326 
Q 2575 -91 1722 -91 
Q 1428 -91 1123 -41 
Q 819 9 494 109 
L 494 744 
Q 775 591 1075 516 
Q 1375 441 1709 441 
Q 2250 441 2565 725 
Q 2881 1009 2881 1497 
Q 2881 1984 2565 2268 
Q 2250 2553 1709 2553 
Q 1456 2553 1204 2497 
Q 953 2441 691 2322 
L 691 4666 
z
" transform="scale(0.015625)"/>
      </defs>
      <use xlink:href="#DejaVuSans-Oblique-6b" transform="translate(0 0.015625)"/>
      <use xlink:href="#DejaVuSans-3d" transform="translate(77.392578 0.015625)"/>
      <use xlink:href="#DejaVuSans-30" transform="translate(180.664062 0.015625)"/>
      <use xlink:href="#DejaVuSans-2e" transform="translate(244.287109 0.015625)"/>
      <use xlink:href="#DejaVuSans-35" transform="translate(276.074219 0.015625)"/>
     </g>
    </g>
    <g id="line2d_32">
     <path d="M 49.035781 32.933086 
L 57.835781 32.933086 
L 66.635781 32.933086 
" style="fill: none; stroke: #c0392b; stroke-width: 1.7; stroke-linecap: square"/>
    </g>
    <g id="text_17">
     <!-- $k=1.0$ -->
     <g transform="translate(73.035781 36.333086) scale(0.08 -0.08)">
      <defs>
       <path id="DejaVuSans-31" d="M 794 531 
L 1825 531 
L 1825 4091 
L 703 3866 
L 703 4441 
L 1819 4666 
L 2450 4666 
L 2450 531 
L 3481 531 
L 3481 0 
L 794 0 
L 794 531 
z
" transform="scale(0.015625)"/>
      </defs>
      <use xlink:href="#DejaVuSans-Oblique-6b" transform="translate(0 0.015625)"/>
      <use xlink:href="#DejaVuSans-3d" transform="translate(77.392578 0.015625)"/>
      <use xlink:href="#DejaVuSans-31" transform="translate(180.664062 0.015625)"/>
      <use xlink:href="#DejaVuSans-2e" transform="translate(244.287109 0.015625)"/>
      <use xlink:href="#DejaVuSans-30" transform="translate(276.074219 0.015625)"/>
     </g>
    </g>
    <g id="line2d_33">
     <path d="M 49.035781 45.396836 
L 57.835781 45.396836 
L 66.635781 45.396836 
" style="fill: none; stroke: #1a7a5e; stroke-width: 1.7; stroke-linecap: square"/>
    </g>
    <g id="text_18">
     <!-- $k=2.0$ -->
     <g transform="translate(73.035781 48.796836) scale(0.08 -0.08)">
      <defs>
       <path id="DejaVuSans-32" d="M 1228 531 
L 3431 531 
L 3431 0 
L 469 0 
L 469 531 
Q 828 903 1448 1529 
Q 2069 2156 2228 2338 
Q 2531 2678 2651 2914 
Q 2772 3150 2772 3378 
Q 2772 3750 2511 3984 
Q 2250 4219 1831 4219 
Q 1534 4219 1204 4116 
Q 875 4013 500 3803 
L 500 4441 
Q 881 4594 1212 4672 
Q 1544 4750 1819 4750 
Q 2544 4750 2975 4387 
Q 3406 4025 3406 3419 
Q 3406 3131 3298 2873 
Q 3191 2616 2906 2266 
Q 2828 2175 2409 1742 
Q 1991 1309 1228 531 
z
" transform="scale(0.015625)"/>
      </defs>
      <use xlink:href="#DejaVuSans-Oblique-6b" transform="translate(0 0.015625)"/>
      <use xlink:href="#DejaVuSans-3d" transform="translate(77.392578 0.015625)"/>
      <use xlink:href="#DejaVuSans-32" transform="translate(180.664062 0.015625)"/>
      <use xlink:href="#DejaVuSans-2e" transform="translate(244.287109 0.015625)"/>
      <use xlink:href="#DejaVuSans-30" transform="translate(276.074219 0.015625)"/>
     </g>
    </g>
   </g>
  </g>
 </g>
 <defs>
  <clipPath id="pde47213541">
   <rect x="40.235781" y="8.269336" width="279.03" height="117.84"/>
  </clipPath>
 </defs>
</svg>
